<svg xmlns="http://www.w3.org/2000/svg" width="140.213" height="498.117" viewBox="0 0 140.213 498.117">
  <g id="Group_13" data-name="Group 13" transform="translate(-925.99)">
    <g id="Group_10" data-name="Group 10">
      <path id="Path_21" data-name="Path 21" d="M1066.2,264.807a25.724,25.724,0,1,0-32.837,24.714v49.753c0,26.4,2.842,53.6,8.686,83.184a51.833,51.833,0,0,1,.974,9.714c.164,27.456-21.995,50.64-49.395,51.68a51.409,51.409,0,0,1-53.415-51.368V420.508S952.205,432.5,968.108,432.5c-20.139-16.19-31.364-33.107-42.118-63.9v63.884a65.63,65.63,0,0,0,65.6,65.633q1.287,0,2.581-.049a65.8,65.8,0,0,0,63.082-65.98,66.136,66.136,0,0,0-1.244-12.388c-5.662-28.66-8.415-54.968-8.416-80.426V289.521A25.763,25.763,0,0,0,1066.2,264.807ZM1040.48,276.3a11.5,11.5,0,1,1,11.5-11.495A11.509,11.509,0,0,1,1040.48,276.3Z" fill="#404060"/>
      <path id="Path_22" data-name="Path 22" d="M998.339,487.646c26.893-1.02,48.643-23.777,48.482-50.726a50.975,50.975,0,0,0-.957-9.536c-5.855-29.64-8.7-56.909-8.7-83.367V294.965c-.309-.1-.623-.21-.949-.332v46.538c0,26.333,2.837,53.483,8.668,83a52.82,52.82,0,0,1,.992,9.892c.167,27.963-22.4,51.574-50.307,52.634a52.863,52.863,0,0,1-15.726-1.769A50.84,50.84,0,0,0,998.339,487.646Z" fill="#8c8ca5"/>
      <path id="Path_23" data-name="Path 23" d="M1045.222,242.877a26.724,26.724,0,0,1,5.9.654,24.748,24.748,0,0,0-31.919,31.9,26.687,26.687,0,0,1,26.02-32.55Z" fill="#8c8ca5"/>
      <path id="Path_24" data-name="Path 24" d="M929.783,381.356q-.476-1.167-.948-2.361v55.386a64.719,64.719,0,0,0,3.372,20.685,66.683,66.683,0,0,1-2.424-17.839Z" fill="#8c8ca5"/>
      <path id="Path_25" data-name="Path 25" d="M1040.6,279.021a10.533,10.533,0,0,0,14.094-14.093,12.447,12.447,0,0,1-14.094,14.093Z" fill="#8c8ca5"/>
    </g>
    <g id="Group_11" data-name="Group 11">
      <path id="Path_26" data-name="Path 26" d="M1048.1,0V264.649a7.687,7.687,0,0,1-6.582,7.727,7.5,7.5,0,0,1-8.418-7.446V0Z" fill="#039be5"/>
    </g>
    <g id="Group_12" data-name="Group 12">
      <path id="Path_27" data-name="Path 27" d="M1040.6,0V264.649c0,3.841-1.383,7.276-3.289,7.727-2.28.539-4.207-3.005-4.207-7.446V0Z" fill="#29b6f6"/>
    </g>
  </g>
</svg>
