<svg xmlns="http://www.w3.org/2000/svg" width="72.571" height="257.816" viewBox="0 0 72.571 257.816">
  <g id="Group_13" data-name="Group 13" transform="translate(-925.99)">
    <g id="Group_10" data-name="Group 10" transform="translate(925.99 123.745)">
      <path id="Path_21" data-name="Path 21" d="M925.99,252.4a13.314,13.314,0,1,1,17,12.791V290.94a220.484,220.484,0,0,1-4.5,43.054,26.639,26.639,0,0,0,25.062,31.776A26.608,26.608,0,0,0,991.2,339.184v-6.2s-6.2,6.2-14.436,6.2c10.424-8.38,16.233-17.136,21.8-33.071v33.065a33.969,33.969,0,0,1-33.954,33.97q-.666,0-1.336-.025a34.055,34.055,0,0,1-32.65-34.15,34.228,34.228,0,0,1,.644-6.412,213.237,213.237,0,0,0,4.356-41.627V265.189A13.335,13.335,0,0,1,925.99,252.4Zm13.314,5.95a5.95,5.95,0,1,0-5.95-5.95A5.957,5.957,0,0,0,939.3,258.347Z" transform="translate(-925.99 -239.083)" fill="#404060"/>
      <path id="Path_22" data-name="Path 22" d="M1004.933,394.533a26.145,26.145,0,0,1-24.6-31.19,220.99,220.99,0,0,0,4.5-43.149V294.8c.16-.052.323-.109.491-.172V318.72a220.02,220.02,0,0,1-4.486,42.959,27.115,27.115,0,0,0,33.664,31.447A26.314,26.314,0,0,1,1004.933,394.533Z" transform="translate(-969.808 -265.881)" fill="#8c8ca5"/>
      <path id="Path_23" data-name="Path 23" d="M1020.655,242.42a13.832,13.832,0,0,0-3.053.339,12.809,12.809,0,0,1,16.521,16.509,13.812,13.812,0,0,0-13.467-16.847Z" transform="translate(-1009.796 -240.456)" fill="#8c8ca5"/>
      <path id="Path_24" data-name="Path 24" d="M930.09,380.217q.246-.6.491-1.222v28.667a33.5,33.5,0,0,1-1.745,10.706,34.512,34.512,0,0,0,1.255-9.233Z" transform="translate(-859.481 -306.579)" fill="#8c8ca5"/>
      <path id="Path_25" data-name="Path 25" d="M1048.451,272.222a5.451,5.451,0,0,1-7.295-7.294,6.442,6.442,0,0,0,7.295,7.294Z" transform="translate(-1035.199 -251.551)" fill="#8c8ca5"/>
    </g>
    <g id="Group_11" data-name="Group 11" transform="translate(935.358)">
      <path id="Path_26" data-name="Path 26" d="M1033.1,0V136.977a3.979,3.979,0,0,0,3.407,4,3.882,3.882,0,0,0,4.357-3.854V0Z" transform="translate(-1033.104)" fill="#039be5"/>
    </g>
    <g id="Group_12" data-name="Group 12" transform="translate(939.242)">
      <path id="Path_27" data-name="Path 27" d="M1033.1,0V136.977c0,1.988.716,3.766,1.7,4,1.18.279,2.177-1.555,2.177-3.854V0Z" transform="translate(-1033.104)" fill="#29b6f6"/>
    </g>
  </g>
</svg>
